<svg xmlns="http://www.w3.org/2000/svg" width="2048" height="2048" fill="none" viewBox="0 0 2048 2048"><path fill="#000" stroke="#000" stroke-linejoin="round" d="M447 1267.49V648.459c0-.382.218-.731.561-.899l609.299-297.453c.15-.07.31-.105.47-.101l542.7 13.642c.54.013.97.457.97.999v504.456a1 1 0 0 1-.33.742L1374.3 1074.37c-.19.17-.43.26-.67.26H907.386c-.134 0-.266.03-.389.08l-458.608 193.7a.997.997 0 0 1-1.389-.92Z"/><path fill="#F9F9F9" d="M1435 526v350h-95l-187.5-285h-5v285H1075V526h95l187.5 285h5V526z"/><path fill="#000" d="M587 1650c18.133 0 35.467-3.07 52-9.2 16.8-6.4 32.8-16.67 48-30.8l20 24q-22.8 21.195-55.2 33.6c-21.6 8.27-44.533 12.4-68.8 12.4q-37.6 0-68-9.6c-20-6.4-37.2-15.87-51.6-28.4-14.133-12.53-25.067-28-32.8-46.4Q419 1568 419 1532t11.2-63.6c7.733-18.4 18.533-33.87 32.4-46.4 14.133-12.53 31.067-22 50.8-28.4q29.6-9.6 65.6-9.6c24.267 0 47.2 4.13 68.8 12.4q32.4 12.405 55.2 33.6l-20 24c-15.2-14.13-31.2-24.27-48-30.4q-24.8-9.6-52-9.6-21.6 0-40.4 7.2c-12.533 4.53-23.333 11.6-32.4 21.2s-16.267 21.87-21.6 36.8q-7.6 22.005-7.6 52.8c0 20.53 2.533 38.27 7.6 53.2 5.333 14.67 12.667 26.8 22 36.4q14.4 14.4 33.6 21.6c13.067 4.53 27.333 6.8 42.8 6.8m212.016 22h-56v-280h56zm168.109-18q12.8 0 24-4.8c7.467-3.2 14.005-8.13 19.605-14.8 5.6-6.93 10-15.87 13.2-26.8q5.19-16.395 5.19-39.6t-5.19-39.6q-4.8-16.395-13.2-26.4c-5.6-6.93-12.138-12-19.605-15.2q-11.2-4.8-24-4.8t-24 4.8c-7.467 3.2-14 8.27-19.6 15.2q-8.4 10.005-13.6 26.4-4.8 16.395-4.8 39.6t4.8 39.6c3.467 10.93 8 19.87 13.6 26.8 5.6 6.67 12.133 11.6 19.6 14.8q11.2 4.8 24 4.8m0-198c17.867 0 34.265 2.53 49.205 7.6 15.2 4.8 28.13 12 38.8 21.6 10.66 9.33 18.93 21.07 24.8 35.2 6.13 13.87 9.2 29.73 9.2 47.6 0 18.13-3.07 34.13-9.2 48-5.87 13.87-14.14 25.6-24.8 35.2-10.67 9.33-23.6 16.4-38.8 21.2-14.94 5.07-31.338 7.6-49.205 7.6-18.133 0-34.667-2.53-49.6-7.6-14.933-4.8-27.733-11.87-38.4-21.2-10.667-9.6-19.067-21.33-25.2-35.2q-8.8-20.805-8.8-48c0-17.87 2.933-33.73 8.8-47.6 6.133-14.13 14.533-25.87 25.2-35.2q16-14.4 38.4-21.6c14.933-5.07 31.467-7.6 49.6-7.6m388.075 216h-56v-126c0-19.2-4.8-32.93-14.4-41.2-9.6-8.53-23.46-12.8-41.6-12.8h-52v180h-56v-208h108c38.14 0 66.27 6.93 84.4 20.8q27.6 20.4 27.6 61.2zm173.83-20c13.07 0 25.2-2.27 36.4-6.8q17.205-6.795 33.6-19.2l16 24c-5.07 4.53-11.07 8.67-18 12.4-6.67 3.73-14 6.93-22 9.6-7.73 2.4-15.87 4.27-24.4 5.6-8.53 1.6-17.07 2.4-25.6 2.4-18.93 0-36.27-2.53-52-7.6-15.47-4.8-28.67-11.87-39.6-21.2-10.93-9.6-19.47-21.33-25.6-35.2-5.87-13.87-8.8-29.87-8.8-48 0-17.87 2.8-33.73 8.4-47.6 5.87-14.13 13.87-25.87 24-35.2 10.4-9.6 22.67-16.8 36.8-21.6 14.13-5.07 29.73-7.6 46.8-7.6 16 0 31.07 2.4 45.2 7.2s26.4 11.87 36.8 21.2c10.4 9.07 18.67 20.13 24.8 33.2s9.2 27.87 9.2 44.4v28h-170.8c3.2 22.13 10.8 38 22.8 47.6 12.27 9.6 27.6 14.4 46 14.4m-14-170c-7.73 0-14.93 1.47-21.6 4.4s-12.53 7.6-17.6 14c-4.8 6.4-8.8 14.67-12 24.8-2.93 10.13-4.53 22.4-4.8 36.8h112q0-20.805-4.8-36c-3.2-10.13-7.47-18.4-12.8-24.8q-7.605-10.005-18-14.4-10.005-4.8-20.4-4.8"/></svg>